<svg width="10" height="12" viewBox="0 0 10 12" fill="none" xmlns="http://www.w3.org/2000/svg">
<path fill-rule="evenodd" clip-rule="evenodd" d="M9.65135 11.7808C9.25132 12.1258 8.66759 12.0559 8.34757 11.6247L4.17365 5.99996L8.34757 0.375268C8.66759 -0.055994 9.25132 -0.125916 9.65135 0.219094C10.0514 0.564104 10.1162 1.1934 9.79621 1.62466L6.54943 5.99996L9.79621 10.3753C10.1162 10.8065 10.0514 11.4358 9.65135 11.7808ZM5.47721 11.7808C5.07717 12.1258 4.49345 12.0559 4.17343 11.6247L-0.000488281 5.99996L4.17343 0.375268C4.49345 -0.055994 5.07718 -0.125916 5.47721 0.219094C5.87724 0.564104 5.9421 1.1934 5.62207 1.62466L2.37529 5.99996L5.62207 10.3753C5.9421 10.8065 5.87724 11.4358 5.47721 11.7808Z" fill="#710707"/>
</svg>
