<svg width="26" height="25" viewBox="0 0 26 25" fill="none" xmlns="http://www.w3.org/2000/svg">
<path d="M24.5176 1.2381C23.2245 0.560917 21.5004 1.0688 20.8108 2.42317L13.0523 17.7444L4.60412 10.0415C4.08689 9.53357 3.39725 9.27963 2.6214 9.36428C1.93175 9.36428 1.24211 9.70287 0.724878 10.2108C-0.309588 11.3112 -0.223382 13.0041 0.897289 14.0199L11.8454 24.0083C12.0178 24.2623 12.2764 24.4316 12.535 24.6009C12.9661 24.7702 13.3971 24.9395 13.8281 24.9395C14.0867 24.9395 14.3453 24.9395 14.604 24.8548C15.2936 24.6855 15.897 24.1776 16.2419 23.5004L25.6383 4.87795C26.4141 3.52359 25.8969 1.91528 24.5176 1.2381Z" fill="#660033"/>
</svg>
