<svg width="150" height="161" viewBox="0 0 150 161" fill="none" xmlns="http://www.w3.org/2000/svg">
<path d="M131.244 51.6502C131.244 53.141 132.623 54.318 134.37 54.318C136.117 54.318 137.496 53.141 137.496 51.6502C137.496 47.2168 141.679 43.6466 146.874 43.6466C148.621 43.6466 150 42.4696 150 40.9787C150 39.4878 148.621 38.3108 146.874 38.3108C141.679 38.3108 137.496 34.7406 137.496 30.3072C137.496 28.8164 136.117 27.6394 134.37 27.6394C132.623 27.6394 131.244 28.8164 131.244 30.3072C131.244 34.7406 127.061 38.3108 121.866 38.3108C120.119 38.3108 118.74 39.4878 118.74 40.9787C118.74 42.4696 120.119 43.6466 121.866 43.6466C127.015 43.6858 131.198 47.256 131.244 51.6502ZM134.324 38.2324C135.243 39.2917 136.301 40.194 137.542 40.9787C136.301 41.7634 135.243 42.6657 134.324 43.725C133.405 42.6657 132.347 41.7634 131.106 40.9787C132.347 40.2333 133.451 39.2917 134.324 38.2324Z" fill="url(#paint0_linear_69:1324)"/>
<path d="M28.1336 27.6786C22.939 27.6786 18.7557 24.1084 18.7557 19.675C18.7557 18.1842 17.3766 17.0072 15.6298 17.0072C13.8829 17.0072 12.5038 18.1842 12.5038 19.675C12.5038 24.0692 8.32056 27.6786 3.12595 27.6786C1.3791 27.6786 0 28.8556 0 30.3465C0 31.8374 1.3791 33.0144 3.12595 33.0144C8.32056 33.0144 12.5038 36.5846 12.5038 41.018C12.5038 42.5088 13.8829 43.6858 15.6298 43.6858C17.3766 43.6858 18.7557 42.5088 18.7557 41.018C18.7557 36.5846 22.939 33.0144 28.1336 33.0144C29.8804 33.0144 31.2595 31.8374 31.2595 30.3465C31.2595 28.8556 29.8345 27.6786 28.1336 27.6786ZM15.6298 33.0928C14.7104 32.0335 13.6531 31.1312 12.4119 30.3465C13.6531 29.5618 14.7104 28.6595 15.6298 27.6002C16.5492 28.6595 17.6065 29.5618 18.8477 30.3465C17.6065 31.1312 16.5492 32.0335 15.6298 33.0928Z" fill="url(#paint1_linear_69:1324)"/>
<path d="M74.9775 64.9895H83.8957L75.0235 120.622C74.7936 122.074 75.9889 123.408 77.6897 123.643C77.8276 123.643 77.9656 123.682 78.1035 123.682C79.6664 123.682 80.9996 122.702 81.1835 121.368L90.5613 62.6747C90.7912 61.2231 89.5959 59.8891 87.8951 59.6537C87.7571 59.6537 87.6192 59.6145 87.4813 59.6145H74.9775C73.2307 59.6145 71.8516 60.7915 71.8516 62.2824C71.8516 63.8125 73.2766 64.9895 74.9775 64.9895Z" fill="url(#paint2_linear_69:1324)"/>
<path d="M19.4001 60.6738C18.8025 61.3016 18.5727 62.1647 18.8025 62.9494L31.3063 108.264C31.6281 109.48 32.9153 110.304 34.3404 110.304H55.8083L61.8763 139.65H49.9701C48.2233 139.65 46.8442 140.827 46.8442 142.318V158.326C46.8442 159.777 48.2233 160.993 49.9701 160.993H99.9394C101.686 160.993 103.065 159.816 103.065 158.326V142.318C103.065 140.827 101.686 139.65 99.9394 139.65H88.0332L94.1012 110.304H115.569C117.04 110.304 118.281 109.441 118.603 108.264L131.107 62.9494C131.521 61.4977 130.463 60.0853 128.763 59.7322C128.533 59.693 128.303 59.6538 128.027 59.6538H104.536L106.099 52.121C106.421 50.6693 105.272 49.2962 103.571 49.0215C103.387 48.9823 103.203 48.9823 103.019 48.9823H96.078L91.0672 33.9559L105.042 24.383C106.375 23.4414 106.605 21.7936 105.548 20.6166C104.95 19.9889 104.077 19.6358 103.111 19.6358H83.5741L78.0118 2.9224C77.644 1.82386 76.5408 1.07843 75.2076 0.999964C73.8745 0.921498 72.6333 1.54923 72.1276 2.60853L63.5772 19.675H46.8902C45.1433 19.675 43.7642 20.852 43.7642 22.3429C43.7642 23.1668 44.1779 23.9122 44.9134 24.4222L58.9343 33.9559L53.9235 48.9823H46.8902C45.1433 48.9823 43.7642 50.1593 43.7642 51.6502C43.7642 51.8071 43.7642 51.964 43.8102 52.121L45.3731 59.6538H21.8825C20.9171 59.6538 19.9977 60.0461 19.4001 60.6738ZM52.4985 94.336H46.2466L41.3738 75.6609H48.637L52.4985 94.336ZM96.8594 155.658H53.0961V144.986H96.8594V155.658ZM101.319 75.6609H108.582L103.709 94.336H97.4571L101.319 75.6609ZM124.166 64.9895L113.133 104.968H95.2505L96.3538 99.6325H106.237C107.708 99.6325 108.95 98.7694 109.271 97.5531L115.523 73.5423C115.891 72.0907 114.834 70.6783 113.133 70.3644C112.903 70.3252 112.673 70.286 112.443 70.286H102.376L103.479 64.9503H124.166V64.9895ZM55.7623 25.0107H65.5999C66.8411 25.0107 67.9903 24.383 68.45 23.4022L74.3802 11.6322L78.1957 23.0883C78.5634 24.2261 79.8046 25.0107 81.1837 25.0107H94.1472L85.4589 30.935C84.4935 31.6019 84.0798 32.7005 84.4016 33.7598L88.309 45.4513L76.6327 38.8209C75.5754 38.2324 74.1963 38.2324 73.1849 38.8209L61.6005 45.4121L65.508 33.7205C65.8298 32.7005 65.416 31.5627 64.4507 30.8957L55.7623 25.0107ZM74.9778 44.1958L83.3903 48.9823H66.5193L74.9778 44.1958ZM99.3878 54.318L81.7353 139.65H68.2202L50.5677 54.318H99.3878ZM46.4305 64.9895L47.5337 70.3252H37.5123C35.7654 70.3252 34.3863 71.5022 34.3863 72.9931C34.3863 73.1892 34.4323 73.3854 34.4783 73.5816L40.7302 97.5924C41.052 98.8086 42.3391 99.6717 43.7642 99.6717H53.6477L54.751 105.007H36.8227L25.79 65.0287H46.4305V64.9895Z" fill="url(#paint3_linear_69:1324)"/>
<defs>
<linearGradient id="paint0_linear_69:1324" x1="-24.2638" y1="41.0006" x2="173.928" y2="41.0006" gradientUnits="userSpaceOnUse">
<stop stop-color="#F9A86D"/>
<stop offset="0.503" stop-color="#F05361"/>
<stop offset="1" stop-color="#B72563"/>
</linearGradient>
<linearGradient id="paint1_linear_69:1324" x1="-24.2637" y1="30.3348" x2="173.928" y2="30.3348" gradientUnits="userSpaceOnUse">
<stop stop-color="#F9A86D"/>
<stop offset="0.503" stop-color="#F05361"/>
<stop offset="1" stop-color="#B72563"/>
</linearGradient>
<linearGradient id="paint2_linear_69:1324" x1="-24.2631" y1="91.6636" x2="173.929" y2="91.6636" gradientUnits="userSpaceOnUse">
<stop stop-color="#F9A86D"/>
<stop offset="0.503" stop-color="#F05361"/>
<stop offset="1" stop-color="#B72563"/>
</linearGradient>
<linearGradient id="paint3_linear_69:1324" x1="-24.2629" y1="80.9962" x2="173.929" y2="80.9962" gradientUnits="userSpaceOnUse">
<stop stop-color="#F9A86D"/>
<stop offset="0.503" stop-color="#F05361"/>
<stop offset="1" stop-color="#B72563"/>
</linearGradient>
</defs>
</svg>
