<svg width="13" height="20" viewBox="0 0 13 20" fill="none" xmlns="http://www.w3.org/2000/svg">
<path d="M11.5243 0.705011L4.11894 5.92376H0.290771V13.9891H4.11894L11.3569 19.0695C11.3569 19.0695 12.6748 20.1172 12.6748 19.0299C12.6748 17.9427 12.6748 1.71318 12.6748 0.724779C12.6957 -0.125244 11.5243 0.705011 11.5243 0.705011ZM10.3528 13.0205C10.2691 13.0995 10.1645 13.1391 10.0599 13.1391C9.95533 13.1391 9.85073 13.0995 9.76706 13.0205L7.11035 10.4902L4.43272 13.0205C4.34905 13.0995 4.24445 13.1391 4.13986 13.1391C4.03526 13.1391 3.93067 13.0995 3.84699 13.0205C3.76332 12.9414 3.72148 12.8426 3.72148 12.7437C3.72148 12.6449 3.76332 12.546 3.84699 12.467L6.5037 9.95643L3.84699 7.42612C3.76332 7.34705 3.72148 7.24821 3.72148 7.14937C3.72148 7.05053 3.76332 6.95169 3.84699 6.87262C4.01435 6.71448 4.28629 6.71448 4.43272 6.87262L7.08943 9.38315L9.74614 6.87262C9.91349 6.71448 10.1854 6.71448 10.3319 6.87262C10.4992 7.03076 10.4992 7.28775 10.3319 7.42612L7.69608 9.93666L10.3528 12.4472C10.5201 12.6053 10.5201 12.8623 10.3528 13.0205Z" fill="#660033"/>
</svg>
