<svg width="68" height="53" viewBox="0 0 68 53" fill="none" xmlns="http://www.w3.org/2000/svg">
<path d="M10.8949 15.3914H0.545288V37.3227H10.8949L30.4631 51.1372C30.4631 51.1372 34.0261 53.9862 34.0261 51.0297C34.0261 48.0733 34.0261 3.94196 34.0261 1.2543C34.0261 -1.05709 30.859 1.20054 30.859 1.20054L10.8949 15.3914Z" fill="#660033"/>
<path d="M44.5378 14.2175C43.7161 13.4418 42.3467 13.4418 41.5251 14.2175C40.7034 14.9932 40.7034 16.286 41.5251 17.0616C44.2639 19.6472 45.6333 23.0085 45.6333 26.4128C45.6333 29.8172 44.2639 33.1785 41.5251 35.7641C40.7034 36.5397 40.7034 37.8325 41.5251 38.6082C41.9359 38.996 42.4837 39.2115 43.0314 39.2115C43.5792 39.2115 44.1269 39.0391 44.5378 38.6082C48.0983 35.2469 49.8785 30.8083 49.8785 26.4128C49.8785 21.9743 48.0983 17.5788 44.5378 14.2175Z" fill="#660033"/>
<path d="M51.098 7.82411C50.3142 7.04691 49.0079 7.04691 48.2242 7.82411C47.4404 8.60132 47.4404 9.89666 48.2242 10.6739C52.6219 15.0348 54.7991 20.6912 54.7991 26.3906C54.7991 32.0901 52.6219 37.7896 48.2242 42.1506C47.4404 42.9278 47.4404 44.2231 48.2242 45.0004C48.6161 45.389 49.1386 45.6048 49.6611 45.6048C50.1836 45.6048 50.7061 45.389 51.098 45.0004C56.2795 39.8622 58.8485 33.0832 58.8485 26.3906C58.8485 19.6549 56.2795 12.9623 51.098 7.82411Z" fill="#660033"/>
<path d="M56.0147 1.42917C55.1332 0.655121 53.6639 0.655121 52.7823 1.42917C51.9007 2.20321 51.9007 3.49329 52.7823 4.26733C59.7369 10.3737 63.2143 18.3722 63.2143 26.3706C63.2143 34.4121 59.7369 42.4106 52.7823 48.5599C51.9007 49.334 51.9007 50.6241 52.7823 51.3981C53.2231 51.7851 53.8108 52.0001 54.3985 52.0001C54.9862 52.0001 55.5739 51.8281 56.0147 51.3981C63.851 44.4747 67.8181 35.4442 67.8181 26.3706C67.8181 17.3401 63.851 8.30957 56.0147 1.42917Z" fill="#660033"/>
</svg>
